<svg width="111" height="41" viewBox="0 0 111 41" fill="none" xmlns="http://www.w3.org/2000/svg">
<rect y="6.27148" width="2.00003" height="2.00003" fill="#161616"/>
<rect y="8.27148" width="2.00003" height="2.00003" fill="#161616"/>
<rect x="2" y="4.27148" width="2.00003" height="2.00004" fill="#161616"/>
<rect x="2" y="6.27148" width="2.00003" height="2.00004" fill="white"/>
<rect x="2" y="8.27148" width="2.00003" height="2.00004" fill="#F6EEE6"/>
<rect x="4" y="2.27148" width="2.00003" height="2.00003" fill="#161616"/>
<rect x="4" y="4.27148" width="2.00003" height="2.00003" fill="white"/>
<rect x="4" y="6.27148" width="2.00003" height="2.00003" fill="#F6EEE6"/>
<rect x="4" y="8.27148" width="2.00003" height="2.00003" fill="#F6EEE6"/>
<rect x="6" y="0.271484" width="2.00003" height="2.00003" fill="#161616"/>
<rect x="6" y="2.27148" width="2.00003" height="2.00003" fill="white"/>
<rect x="6" y="4.27148" width="2.00003" height="2.00003" fill="white"/>
<rect x="6" y="6.27148" width="2.00003" height="2.00003" fill="#F6EEE6"/>
<rect x="6" y="8.27148" width="2.00003" height="2.00003" fill="#F6EEE6"/>
<rect x="8" y="0.271484" width="2.00003" height="2.00003" fill="#161616"/>
<rect x="8" y="2.27148" width="2.00003" height="2.00003" fill="white"/>
<rect x="8" y="4.27148" width="2.00003" height="2.00003" fill="white"/>
<rect x="8" y="6.27148" width="2.00003" height="2.00003" fill="#F6EEE6"/>
<rect x="8" y="8.27148" width="2.00003" height="2.00003" fill="#F6EEE6"/>
<rect y="10.2715" width="2" height="19.9997" fill="#161616"/>
<rect x="2" y="10.2715" width="8.00013" height="19.9997" fill="#F6EEE6"/>
<rect x="6" y="40.2715" width="2.00003" height="2.00003" transform="rotate(-90 6 40.2715)" fill="#161616"/>
<rect x="8" y="40.2715" width="2.00003" height="2.00003" transform="rotate(-90 8 40.2715)" fill="#161616"/>
<rect x="4" y="38.2715" width="2.00003" height="2.00003" transform="rotate(-90 4 38.2715)" fill="#161616"/>
<rect x="6" y="38.2715" width="2.00003" height="2.00003" transform="rotate(-90 6 38.2715)" fill="#CBBCAC"/>
<rect x="8" y="38.2715" width="2.00003" height="2.00003" transform="rotate(-90 8 38.2715)" fill="#CBBCAC"/>
<rect x="2" y="36.2715" width="2.00003" height="2.00003" transform="rotate(-90 2 36.2715)" fill="#161616"/>
<rect x="4" y="36.2715" width="2.00003" height="2.00003" transform="rotate(-90 4 36.2715)" fill="#CBBCAC"/>
<rect x="6" y="36.2715" width="2.00003" height="2.00003" transform="rotate(-90 6 36.2715)" fill="#CBBCAC"/>
<rect x="8" y="36.2715" width="2.00003" height="2.00003" transform="rotate(-90 8 36.2715)" fill="#CBBCAC"/>
<rect y="34.2715" width="2.00003" height="2.00003" transform="rotate(-90 0 34.2715)" fill="#161616"/>
<rect x="2" y="34.2715" width="2.00003" height="2.00003" transform="rotate(-90 2 34.2715)" fill="#CBBCAC"/>
<rect x="4" y="34.2715" width="2.00003" height="2.00003" transform="rotate(-90 4 34.2715)" fill="#F6EEE6"/>
<rect x="6" y="34.2715" width="2.00003" height="2.00003" transform="rotate(-90 6 34.2715)" fill="#F6EEE6"/>
<rect x="8" y="34.2715" width="2.00003" height="2.00003" transform="rotate(-90 8 34.2715)" fill="#F6EEE6"/>
<rect y="32.2715" width="2.00003" height="2.00003" transform="rotate(-90 0 32.2715)" fill="#161616"/>
<rect x="2" y="32.2715" width="2.00003" height="2.00003" transform="rotate(-90 2 32.2715)" fill="#F6EEE6"/>
<rect x="4" y="32.2715" width="2.00003" height="2.00003" transform="rotate(-90 4 32.2715)" fill="#F6EEE6"/>
<rect x="6" y="32.2715" width="2.00003" height="2.00003" transform="rotate(-90 6 32.2715)" fill="#F6EEE6"/>
<rect x="8" y="32.2715" width="2.00003" height="2.00003" transform="rotate(-90 8 32.2715)" fill="#F6EEE6"/>
<rect x="10" y="0.271484" width="93" height="2" fill="#161616"/>
<rect x="10" y="2.27148" width="93" height="2" fill="white"/>
<rect width="93" height="32" transform="translate(10 4.27148)" fill="#F6EEE6"/>
<path d="M30.6638 26.7715V14.1715H37.4498V15.1435H38.4038V16.1155H39.3758V17.0875H40.3478V23.8555H39.3758V24.8275H38.4038V25.7995H37.4498V26.7715H30.6638ZM32.5898 16.1155V24.8275H36.4778V23.8555H37.4498V22.8835H38.4218V18.0595H37.4498V17.0875H36.4778V16.1155H32.5898ZM42.6482 19.0135V18.0415H43.6022V17.0875H47.4902V18.0415H48.4622V19.0135H49.4342V22.9015H43.6202V23.8555H44.5742V24.8275H46.5182V23.8555H49.4342V24.8275H48.4622V25.7995H47.4902V26.7715H43.6022V25.7995H42.6482V24.8275H41.6762V19.0135H42.6482ZM47.4902 20.9575V19.9675H46.5182V18.9955H44.5742V19.9675H43.6202V20.9575H47.4902ZM53.6885 17.0875V18.0415H57.5765V19.9855H54.6605V24.8275H55.6325V23.8555H57.5765V25.7995H56.6045V26.7715H53.6885V25.7995H52.7165V19.9855H50.7725V18.0415H51.7445V17.0875H52.7165V15.1435H54.6605V17.0875H53.6885ZM62.772 21.9295V22.9015H61.8V23.8735H60.828V24.8275H62.772V23.8555H63.744V21.9295H62.772ZM59.874 18.0415V17.0875H64.716V18.0415H65.688V24.8275H66.66V26.7715H64.716V25.7995H62.772V26.7715H59.874V25.7995H58.902V22.9015H59.874V21.9295H60.828V20.9575H62.772V19.9855H63.744V19.0135H60.846V19.9855H58.902V18.0415H59.874ZM67.9983 16.1155V14.1715H69.9423V16.1155H67.9983ZM67.9983 26.7715V17.0695H69.9423V26.7715H67.9983ZM71.2763 25.7995V14.1715H73.2203V24.8275H74.1923V26.7715H72.2483V25.7995H71.2763ZM75.5439 19.0135V18.0415H76.5159V17.0875H80.4039V18.0415H81.3759V19.0135H82.3299V20.9395H80.4039V19.9675H79.4319V18.9955H76.5159V19.9855H77.4879V20.9575H79.4319V21.9295H81.3759V22.9015H82.3299V24.8275H81.3759V25.7995H80.4039V26.7715H76.5159V25.7995H75.5439V24.8275H74.5899V22.8835H76.5159V23.8555H77.4879V24.8275H80.4039V23.8555H79.4319V22.9015H77.4879V21.9295H75.5439V20.9575H74.5719V19.0135H75.5439Z" fill="#161616"/>
<rect x="10" y="36.2715" width="93" height="2" fill="#CBBCAC"/>
<rect x="10" y="38.2715" width="93" height="2" fill="#161616"/>
<rect width="2.00003" height="2.00003" transform="matrix(-1 0 0 1 111 6.27148)" fill="#161616"/>
<rect width="2.00003" height="1.99997" transform="matrix(-1 0 0 1 109 4.27148)" fill="#161616"/>
<rect width="2.00003" height="1.99997" transform="matrix(-1 0 0 1 109 6.27148)" fill="white"/>
<rect width="2.00003" height="2.00004" transform="matrix(-1 0 0 1 107 2.27148)" fill="#161616"/>
<rect width="2.00003" height="2.00004" transform="matrix(-1 0 0 1 107 4.27148)" fill="white"/>
<rect width="2.00003" height="2.00004" transform="matrix(-1 0 0 1 107 6.27148)" fill="#F6EEE6"/>
<rect width="2.00003" height="2.00003" transform="matrix(-1 0 0 1 105 0.271484)" fill="#161616"/>
<rect width="2.00003" height="2.00003" transform="matrix(-1 0 0 1 105 2.27148)" fill="white"/>
<rect width="2.00003" height="2.00003" transform="matrix(-1 0 0 1 105 4.27148)" fill="white"/>
<rect width="2.00003" height="2.00003" transform="matrix(-1 0 0 1 105 6.27148)" fill="#F6EEE6"/>
<rect x="103" y="8.27148" width="6.0001" height="23.9998" fill="#F6EEE6"/>
<rect x="109" y="8.27148" width="2" height="23.9998" fill="#161616"/>
<rect width="2" height="2" transform="matrix(4.37114e-08 -1 -1 -4.37114e-08 105 40.2715)" fill="#161616"/>
<rect width="2.00003" height="2.00003" transform="matrix(4.37114e-08 -1 -1 -4.37114e-08 107 38.2715)" fill="#161616"/>
<rect width="2.00003" height="2.00003" transform="matrix(4.37114e-08 -1 -1 -4.37114e-08 105 38.2715)" fill="#CBBCAC"/>
<rect width="2.00003" height="2.00003" transform="matrix(4.37114e-08 -1 -1 -4.37114e-08 109 36.2715)" fill="#161616"/>
<rect width="2.00003" height="2.00003" transform="matrix(4.37114e-08 -1 -1 -4.37114e-08 107 36.2715)" fill="#CBBCAC"/>
<rect width="2.00003" height="2.00003" transform="matrix(4.37114e-08 -1 -1 -4.37114e-08 105 36.2715)" fill="#CBBCAC"/>
<rect width="2.00003" height="2.00003" transform="matrix(4.37114e-08 -1 -1 -4.37114e-08 111 34.2715)" fill="#161616"/>
<rect width="2.00003" height="2.00003" transform="matrix(4.37114e-08 -1 -1 -4.37114e-08 109 34.2715)" fill="#CBBCAC"/>
<rect width="2.00003" height="2.00003" transform="matrix(4.37114e-08 -1 -1 -4.37114e-08 107 34.2715)" fill="#CBBCAC"/>
<rect width="2.00003" height="2.00003" transform="matrix(4.37114e-08 -1 -1 -4.37114e-08 105 34.2715)" fill="#F6EEE6"/>
</svg>
