<svg width="111" height="40" viewBox="0 0 111 40" fill="none" xmlns="http://www.w3.org/2000/svg">
<rect y="6.00012" width="2.00003" height="2.00003" fill="#161616"/>
<rect y="8.00012" width="2.00003" height="2.00003" fill="#161616"/>
<rect x="2" y="4" width="2.00003" height="2.00004" fill="#161616"/>
<rect x="2" y="6" width="2.00003" height="2.00004" fill="white"/>
<rect x="2" y="8.00012" width="2.00003" height="2.00004" fill="#EBE3DB"/>
<rect x="4" y="2" width="2.00003" height="2.00003" fill="#161616"/>
<rect x="4" y="4" width="2.00003" height="2.00003" fill="white"/>
<rect x="4" y="6" width="2.00003" height="2.00003" fill="#EBE3DB"/>
<rect x="4" y="8.00012" width="2.00003" height="2.00003" fill="#EBE3DB"/>
<rect x="6" width="2.00003" height="2.00003" fill="#161616"/>
<rect x="6" y="2" width="2.00003" height="2.00003" fill="white"/>
<rect x="6" y="4" width="2.00003" height="2.00003" fill="white"/>
<rect x="6" y="6.00012" width="2.00003" height="2.00003" fill="#EBE3DB"/>
<rect x="6" y="8.00012" width="2.00003" height="2.00003" fill="#EBE3DB"/>
<rect x="8" width="2.00003" height="2.00003" fill="#161616"/>
<rect x="8" y="2" width="2.00003" height="2.00003" fill="white"/>
<rect x="8" y="4" width="2.00003" height="2.00003" fill="white"/>
<rect x="8" y="6.00012" width="2.00003" height="2.00003" fill="#EBE3DB"/>
<rect x="8" y="8.00012" width="2.00003" height="2.00003" fill="#EBE3DB"/>
<rect y="10.0001" width="2" height="19.9997" fill="#161616"/>
<rect x="2" y="10.0001" width="8.00013" height="19.9997" fill="#EBE3DB"/>
<rect x="6" y="40" width="2.00003" height="2.00003" transform="rotate(-90 6 40)" fill="#161616"/>
<rect x="8" y="40" width="2.00003" height="2.00003" transform="rotate(-90 8 40)" fill="#161616"/>
<rect x="4" y="38" width="2.00003" height="2.00003" transform="rotate(-90 4 38)" fill="#161616"/>
<rect x="6" y="38" width="2.00003" height="2.00003" transform="rotate(-90 6 38)" fill="#CBBCAC"/>
<rect x="8" y="38" width="2.00003" height="2.00003" transform="rotate(-90 8 38)" fill="#CBBCAC"/>
<rect x="2" y="36" width="2.00003" height="2.00003" transform="rotate(-90 2 36)" fill="#161616"/>
<rect x="4" y="36" width="2.00003" height="2.00003" transform="rotate(-90 4 36)" fill="#CBBCAC"/>
<rect x="6" y="36" width="2.00003" height="2.00003" transform="rotate(-90 6 36)" fill="#CBBCAC"/>
<rect x="8" y="36" width="2.00003" height="2.00003" transform="rotate(-90 8 36)" fill="#CBBCAC"/>
<rect y="33.9999" width="2.00003" height="2.00003" transform="rotate(-90 0 33.9999)" fill="#161616"/>
<rect x="2" y="33.9999" width="2.00003" height="2.00003" transform="rotate(-90 2 33.9999)" fill="#CBBCAC"/>
<rect x="4" y="33.9999" width="2.00003" height="2.00003" transform="rotate(-90 4 33.9999)" fill="#EBE3DB"/>
<rect x="6" y="33.9999" width="2.00003" height="2.00003" transform="rotate(-90 6 33.9999)" fill="#EBE3DB"/>
<rect x="8" y="33.9999" width="2.00003" height="2.00003" transform="rotate(-90 8 33.9999)" fill="#EBE3DB"/>
<rect y="31.9999" width="2.00003" height="2.00003" transform="rotate(-90 0 31.9999)" fill="#161616"/>
<rect x="2" y="31.9999" width="2.00003" height="2.00003" transform="rotate(-90 2 31.9999)" fill="#EBE3DB"/>
<rect x="4" y="31.9999" width="2.00003" height="2.00003" transform="rotate(-90 4 31.9999)" fill="#EBE3DB"/>
<rect x="6" y="31.9999" width="2.00003" height="2.00003" transform="rotate(-90 6 31.9999)" fill="#EBE3DB"/>
<rect x="8" y="31.9999" width="2.00003" height="2.00003" transform="rotate(-90 8 31.9999)" fill="#EBE3DB"/>
<rect x="10" width="93" height="2" fill="#161616"/>
<rect x="10" y="2" width="93" height="2" fill="white"/>
<rect width="93" height="32" transform="translate(10 4)" fill="#EBE3DB"/>
<rect x="10" y="36" width="93" height="2" fill="#CBBCAC"/>
<rect x="10" y="38" width="93" height="2" fill="#161616"/>
<rect width="2.00003" height="2.00003" transform="matrix(-1 0 0 1 111 6.00012)" fill="#161616"/>
<rect width="2.00003" height="1.99997" transform="matrix(-1 0 0 1 109 4.00012)" fill="#161616"/>
<rect width="2.00003" height="1.99997" transform="matrix(-1 0 0 1 109 6.00012)" fill="white"/>
<rect width="2.00003" height="2.00004" transform="matrix(-1 0 0 1 107 2)" fill="#161616"/>
<rect width="2.00003" height="2.00004" transform="matrix(-1 0 0 1 107 4)" fill="white"/>
<rect width="2.00003" height="2.00004" transform="matrix(-1 0 0 1 107 6.00012)" fill="#EBE3DB"/>
<rect width="2.00003" height="2.00003" transform="matrix(-1 0 0 1 105 0)" fill="#161616"/>
<rect width="2.00003" height="2.00003" transform="matrix(-1 0 0 1 105 2)" fill="white"/>
<rect width="2.00003" height="2.00003" transform="matrix(-1 0 0 1 105 4)" fill="white"/>
<rect width="2.00003" height="2.00003" transform="matrix(-1 0 0 1 105 6.00012)" fill="#EBE3DB"/>
<rect x="103" y="8.00012" width="6.0001" height="23.9998" fill="#EBE3DB"/>
<rect x="109" y="8.00012" width="2" height="23.9998" fill="#161616"/>
<rect width="2" height="2" transform="matrix(4.37114e-08 -1 -1 -4.37114e-08 105 40)" fill="#161616"/>
<rect width="2.00003" height="2.00003" transform="matrix(4.37114e-08 -1 -1 -4.37114e-08 107 38)" fill="#161616"/>
<rect width="2.00003" height="2.00003" transform="matrix(4.37114e-08 -1 -1 -4.37114e-08 105 38)" fill="#CBBCAC"/>
<rect width="2.00003" height="2.00003" transform="matrix(4.37114e-08 -1 -1 -4.37114e-08 109 36)" fill="#161616"/>
<rect width="2.00003" height="2.00003" transform="matrix(4.37114e-08 -1 -1 -4.37114e-08 107 36)" fill="#CBBCAC"/>
<rect width="2.00003" height="2.00003" transform="matrix(4.37114e-08 -1 -1 -4.37114e-08 105 36)" fill="#CBBCAC"/>
<rect width="2.00003" height="2.00003" transform="matrix(4.37114e-08 -1 -1 -4.37114e-08 111 34)" fill="#161616"/>
<rect width="2.00003" height="2.00003" transform="matrix(4.37114e-08 -1 -1 -4.37114e-08 109 34)" fill="#CBBCAC"/>
<rect width="2.00003" height="2.00003" transform="matrix(4.37114e-08 -1 -1 -4.37114e-08 107 34)" fill="#CBBCAC"/>
<rect width="2.00003" height="2.00003" transform="matrix(4.37114e-08 -1 -1 -4.37114e-08 105 34)" fill="#EBE3DB"/>
</svg>
