<svg width="151" height="44" viewBox="0 0 151 44" fill="none" xmlns="http://www.w3.org/2000/svg">
<rect x="0.5" y="6" width="2.00003" height="2.00003" fill="#161616"/>
<rect x="0.5" y="8" width="2.00003" height="2.00003" fill="#161616"/>
<rect x="2.5" y="4" width="2.00003" height="2.00004" fill="#161616"/>
<rect x="2.5" y="6" width="2.00003" height="2.00004" fill="white"/>
<rect x="2.5" y="8" width="2.00003" height="2.00004" fill="#F6EEE6"/>
<rect x="4.5" y="2" width="2.00003" height="2.00003" fill="#161616"/>
<rect x="4.5" y="4" width="2.00003" height="2.00003" fill="white"/>
<rect x="4.5" y="6" width="2.00003" height="2.00003" fill="#F6EEE6"/>
<rect x="4.5" y="8" width="2.00003" height="2.00003" fill="#F6EEE6"/>
<rect x="6.5" width="2.00003" height="2.00003" fill="#161616"/>
<rect x="6.5" y="2" width="2.00003" height="2.00003" fill="white"/>
<rect x="6.5" y="4" width="2.00003" height="2.00003" fill="white"/>
<rect x="6.5" y="6" width="2.00003" height="2.00003" fill="#F6EEE6"/>
<rect x="6.5" y="8" width="2.00003" height="2.00003" fill="#F6EEE6"/>
<rect x="8.5" width="2.00003" height="2.00003" fill="#161616"/>
<rect x="8.5" y="2" width="2.00003" height="2.00003" fill="white"/>
<rect x="8.5" y="4" width="2.00003" height="2.00003" fill="white"/>
<rect x="8.5" y="6" width="2.00003" height="2.00003" fill="#F6EEE6"/>
<rect x="8.5" y="8" width="2.00003" height="2.00003" fill="#F6EEE6"/>
<rect x="0.5" y="10.0002" width="2" height="23.9997" fill="#161616"/>
<rect x="2.5" y="10.0002" width="8.00013" height="23.9997" fill="#F6EEE6"/>
<rect x="6.5" y="44" width="2.00003" height="2.00003" transform="rotate(-90 6.5 44)" fill="#161616"/>
<rect x="8.5" y="44" width="2.00003" height="2.00003" transform="rotate(-90 8.5 44)" fill="#161616"/>
<rect x="4.5" y="42" width="2.00003" height="2.00003" transform="rotate(-90 4.5 42)" fill="#161616"/>
<rect x="6.5" y="42" width="2.00003" height="2.00003" transform="rotate(-90 6.5 42)" fill="#CBBCAC"/>
<rect x="8.5" y="42" width="2.00003" height="2.00003" transform="rotate(-90 8.5 42)" fill="#CBBCAC"/>
<rect x="2.5" y="40" width="2.00003" height="2.00003" transform="rotate(-90 2.5 40)" fill="#161616"/>
<rect x="4.5" y="40" width="2.00003" height="2.00003" transform="rotate(-90 4.5 40)" fill="#CBBCAC"/>
<rect x="6.5" y="40" width="2.00003" height="2.00003" transform="rotate(-90 6.5 40)" fill="#CBBCAC"/>
<rect x="8.5" y="40" width="2.00003" height="2.00003" transform="rotate(-90 8.5 40)" fill="#CBBCAC"/>
<rect x="0.5" y="38" width="2.00003" height="2.00003" transform="rotate(-90 0.5 38)" fill="#161616"/>
<rect x="2.5" y="38" width="2.00003" height="2.00003" transform="rotate(-90 2.5 38)" fill="#CBBCAC"/>
<rect x="4.5" y="38" width="2.00003" height="2.00003" transform="rotate(-90 4.5 38)" fill="#F6EEE6"/>
<rect x="6.5" y="38" width="2.00003" height="2.00003" transform="rotate(-90 6.5 38)" fill="#F6EEE6"/>
<rect x="8.5" y="38" width="2.00003" height="2.00003" transform="rotate(-90 8.5 38)" fill="#F6EEE6"/>
<rect x="0.5" y="36" width="2.00003" height="2.00003" transform="rotate(-90 0.5 36)" fill="#161616"/>
<rect x="2.5" y="36" width="2.00003" height="2.00003" transform="rotate(-90 2.5 36)" fill="#F6EEE6"/>
<rect x="4.5" y="36" width="2.00003" height="2.00003" transform="rotate(-90 4.5 36)" fill="#F6EEE6"/>
<rect x="6.5" y="36" width="2.00003" height="2.00003" transform="rotate(-90 6.5 36)" fill="#F6EEE6"/>
<rect x="8.5" y="36" width="2.00003" height="2.00003" transform="rotate(-90 8.5 36)" fill="#F6EEE6"/>
<rect x="10.5" width="132" height="2" fill="#161616"/>
<rect x="10.5" y="2" width="132" height="2" fill="white"/>
<rect width="132" height="36" transform="translate(10.5 4)" fill="#F6EEE6"/>
<rect x="10.5" y="40" width="132" height="2" fill="#CBBCAC"/>
<rect x="10.5" y="42" width="132" height="2" fill="#161616"/>
<rect width="2.00003" height="2.00003" transform="matrix(-1 0 0 1 150.5 6)" fill="#161616"/>
<rect width="2.00003" height="1.99997" transform="matrix(-1 0 0 1 148.5 4.00024)" fill="#161616"/>
<rect width="2.00003" height="1.99997" transform="matrix(-1 0 0 1 148.5 6.00024)" fill="white"/>
<rect width="2.00003" height="2.00004" transform="matrix(-1 0 0 1 146.5 2)" fill="#161616"/>
<rect width="2.00003" height="2.00004" transform="matrix(-1 0 0 1 146.5 4)" fill="white"/>
<rect width="2.00003" height="2.00004" transform="matrix(-1 0 0 1 146.5 6)" fill="#F6EEE6"/>
<rect width="2.00003" height="2.00003" transform="matrix(-1 0 0 1 144.5 0)" fill="#161616"/>
<rect width="2.00003" height="2.00003" transform="matrix(-1 0 0 1 144.5 2)" fill="white"/>
<rect width="2.00003" height="2.00003" transform="matrix(-1 0 0 1 144.5 4)" fill="white"/>
<rect width="2.00003" height="2.00003" transform="matrix(-1 0 0 1 144.5 6)" fill="#F6EEE6"/>
<rect x="142.5" y="8" width="6.0001" height="27.9998" fill="#F6EEE6"/>
<rect x="148.5" y="8" width="2" height="27.9998" fill="#161616"/>
<rect width="2" height="2" transform="matrix(4.37114e-08 -1 -1 -4.37114e-08 144.5 44)" fill="#161616"/>
<rect width="2.00003" height="2.00003" transform="matrix(4.37114e-08 -1 -1 -4.37114e-08 146.5 42)" fill="#161616"/>
<rect width="2.00003" height="2.00003" transform="matrix(4.37114e-08 -1 -1 -4.37114e-08 144.5 42)" fill="#CBBCAC"/>
<rect width="2.00003" height="2.00003" transform="matrix(4.37114e-08 -1 -1 -4.37114e-08 148.5 40)" fill="#161616"/>
<rect width="2.00003" height="2.00003" transform="matrix(4.37114e-08 -1 -1 -4.37114e-08 146.5 40)" fill="#CBBCAC"/>
<rect width="2.00003" height="2.00003" transform="matrix(4.37114e-08 -1 -1 -4.37114e-08 144.5 40)" fill="#CBBCAC"/>
<rect width="2.00003" height="2.00003" transform="matrix(4.37114e-08 -1 -1 -4.37114e-08 150.5 38)" fill="#161616"/>
<rect width="2.00003" height="2.00003" transform="matrix(4.37114e-08 -1 -1 -4.37114e-08 148.5 38)" fill="#CBBCAC"/>
<rect width="2.00003" height="2.00003" transform="matrix(4.37114e-08 -1 -1 -4.37114e-08 146.5 38)" fill="#CBBCAC"/>
<rect width="2.00003" height="2.00003" transform="matrix(4.37114e-08 -1 -1 -4.37114e-08 144.5 38)" fill="#F6EEE6"/>
</svg>
