<svg width="131" height="40" viewBox="0 0 131 40" fill="none" xmlns="http://www.w3.org/2000/svg">
<rect y="6" width="2.00003" height="2.00003" fill="#161616"/>
<rect y="8" width="2.00003" height="2.00003" fill="#161616"/>
<rect x="2" y="4" width="2.00003" height="2.00004" fill="#161616"/>
<rect x="2" y="6" width="2.00003" height="2.00004" fill="white"/>
<rect x="2" y="8" width="2.00003" height="2.00004" fill="#F6EEE6"/>
<rect x="4" y="2" width="2.00003" height="2.00003" fill="#161616"/>
<rect x="4" y="4" width="2.00003" height="2.00003" fill="white"/>
<rect x="4" y="6" width="2.00003" height="2.00003" fill="#F6EEE6"/>
<rect x="4" y="8" width="2.00003" height="2.00003" fill="#F6EEE6"/>
<rect x="6" width="2.00003" height="2.00003" fill="#161616"/>
<rect x="6" y="2" width="2.00003" height="2.00003" fill="white"/>
<rect x="6" y="4" width="2.00003" height="2.00003" fill="white"/>
<rect x="6" y="6" width="2.00003" height="2.00003" fill="#F6EEE6"/>
<rect x="6" y="8" width="2.00003" height="2.00003" fill="#F6EEE6"/>
<rect x="8" width="2.00003" height="2.00003" fill="#161616"/>
<rect x="8" y="2" width="2.00003" height="2.00003" fill="white"/>
<rect x="8" y="4" width="2.00003" height="2.00003" fill="white"/>
<rect x="8" y="6" width="2.00003" height="2.00003" fill="#F6EEE6"/>
<rect x="8" y="8" width="2.00003" height="2.00003" fill="#F6EEE6"/>
<rect y="10" width="2" height="19.9997" fill="#161616"/>
<rect x="2" y="10" width="8.00013" height="19.9997" fill="#F6EEE6"/>
<rect x="6" y="40" width="2.00003" height="2.00003" transform="rotate(-90 6 40)" fill="#161616"/>
<rect x="8" y="40" width="2.00003" height="2.00003" transform="rotate(-90 8 40)" fill="#161616"/>
<rect x="4" y="38" width="2.00003" height="2.00003" transform="rotate(-90 4 38)" fill="#161616"/>
<rect x="6" y="38" width="2.00003" height="2.00003" transform="rotate(-90 6 38)" fill="#CBBCAC"/>
<rect x="8" y="38" width="2.00003" height="2.00003" transform="rotate(-90 8 38)" fill="#CBBCAC"/>
<rect x="2" y="36" width="2.00003" height="2.00003" transform="rotate(-90 2 36)" fill="#161616"/>
<rect x="4" y="36" width="2.00003" height="2.00003" transform="rotate(-90 4 36)" fill="#CBBCAC"/>
<rect x="6" y="36" width="2.00003" height="2.00003" transform="rotate(-90 6 36)" fill="#CBBCAC"/>
<rect x="8" y="36" width="2.00003" height="2.00003" transform="rotate(-90 8 36)" fill="#CBBCAC"/>
<rect y="34" width="2.00003" height="2.00003" transform="rotate(-90 0 34)" fill="#161616"/>
<rect x="2" y="34" width="2.00003" height="2.00003" transform="rotate(-90 2 34)" fill="#CBBCAC"/>
<rect x="4" y="34" width="2.00003" height="2.00003" transform="rotate(-90 4 34)" fill="#F6EEE6"/>
<rect x="6" y="34" width="2.00003" height="2.00003" transform="rotate(-90 6 34)" fill="#F6EEE6"/>
<rect x="8" y="34" width="2.00003" height="2.00003" transform="rotate(-90 8 34)" fill="#F6EEE6"/>
<rect y="32" width="2.00003" height="2.00003" transform="rotate(-90 0 32)" fill="#161616"/>
<rect x="2" y="32" width="2.00003" height="2.00003" transform="rotate(-90 2 32)" fill="#F6EEE6"/>
<rect x="4" y="32" width="2.00003" height="2.00003" transform="rotate(-90 4 32)" fill="#F6EEE6"/>
<rect x="6" y="32" width="2.00003" height="2.00003" transform="rotate(-90 6 32)" fill="#F6EEE6"/>
<rect x="8" y="32" width="2.00003" height="2.00003" transform="rotate(-90 8 32)" fill="#F6EEE6"/>
<rect x="10" width="113" height="2" fill="#161616"/>
<rect x="10" y="2" width="113" height="2" fill="white"/>
<rect width="113" height="32" transform="translate(10 4)" fill="#F6EEE6"/>
<rect x="10" y="36" width="113" height="2" fill="#CBBCAC"/>
<rect x="10" y="38" width="113" height="2" fill="#161616"/>
<rect width="2.00003" height="2.00003" transform="matrix(-1 0 0 1 131 6)" fill="#161616"/>
<rect width="2.00003" height="1.99997" transform="matrix(-1 0 0 1 129 4)" fill="#161616"/>
<rect width="2.00003" height="1.99997" transform="matrix(-1 0 0 1 129 6)" fill="white"/>
<rect width="2.00003" height="2.00004" transform="matrix(-1 0 0 1 127 2)" fill="#161616"/>
<rect width="2.00003" height="2.00004" transform="matrix(-1 0 0 1 127 4)" fill="white"/>
<rect width="2.00003" height="2.00004" transform="matrix(-1 0 0 1 127 6)" fill="#F6EEE6"/>
<rect width="2.00003" height="2.00003" transform="matrix(-1 0 0 1 125 0)" fill="#161616"/>
<rect width="2.00003" height="2.00003" transform="matrix(-1 0 0 1 125 2)" fill="white"/>
<rect width="2.00003" height="2.00003" transform="matrix(-1 0 0 1 125 4)" fill="white"/>
<rect width="2.00003" height="2.00003" transform="matrix(-1 0 0 1 125 6)" fill="#F6EEE6"/>
<rect x="123" y="8" width="6.0001" height="23.9998" fill="#F6EEE6"/>
<rect x="129" y="8" width="2" height="23.9998" fill="#161616"/>
<rect width="2" height="2" transform="matrix(4.37114e-08 -1 -1 -4.37114e-08 125 40)" fill="#161616"/>
<rect width="2.00003" height="2.00003" transform="matrix(4.37114e-08 -1 -1 -4.37114e-08 127 38)" fill="#161616"/>
<rect width="2.00003" height="2.00003" transform="matrix(4.37114e-08 -1 -1 -4.37114e-08 125 38)" fill="#CBBCAC"/>
<rect width="2.00003" height="2.00003" transform="matrix(4.37114e-08 -1 -1 -4.37114e-08 129 36)" fill="#161616"/>
<rect width="2.00003" height="2.00003" transform="matrix(4.37114e-08 -1 -1 -4.37114e-08 127 36)" fill="#CBBCAC"/>
<rect width="2.00003" height="2.00003" transform="matrix(4.37114e-08 -1 -1 -4.37114e-08 125 36)" fill="#CBBCAC"/>
<rect width="2.00003" height="2.00003" transform="matrix(4.37114e-08 -1 -1 -4.37114e-08 131 34)" fill="#161616"/>
<rect width="2.00003" height="2.00003" transform="matrix(4.37114e-08 -1 -1 -4.37114e-08 129 34)" fill="#CBBCAC"/>
<rect width="2.00003" height="2.00003" transform="matrix(4.37114e-08 -1 -1 -4.37114e-08 127 34)" fill="#CBBCAC"/>
<rect width="2.00003" height="2.00003" transform="matrix(4.37114e-08 -1 -1 -4.37114e-08 125 34)" fill="#F6EEE6"/>
</svg>
