<svg width="87" height="40" viewBox="0 0 87 40" fill="none" xmlns="http://www.w3.org/2000/svg">
<rect y="8.00008" width="2.00003" height="2.00003" fill="#161616"/>
<rect y="10.0001" width="2.00003" height="2.00003" fill="#161616"/>
<rect x="2" y="6" width="2.00003" height="2.00004" fill="#161616"/>
<rect x="2" y="8.00005" width="2.00003" height="2.00004" fill="white"/>
<rect x="2" y="10.0001" width="2.00003" height="2.00004" fill="#F6EEE6"/>
<rect x="4" y="4" width="2.00003" height="2.00003" fill="#161616"/>
<rect x="4" y="6.00002" width="2.00003" height="2.00003" fill="white"/>
<rect x="4" y="8.00005" width="2.00003" height="2.00003" fill="#F6EEE6"/>
<rect x="4" y="10.0001" width="2.00003" height="2.00003" fill="#F6EEE6"/>
<rect x="6.00008" y="2" width="2.00003" height="2.00003" fill="#161616"/>
<rect x="6.00008" y="4.00002" width="2.00003" height="2.00003" fill="white"/>
<rect x="6.00008" y="6.00005" width="2.00003" height="2.00003" fill="white"/>
<rect x="6.00008" y="8.00008" width="2.00003" height="2.00003" fill="#F6EEE6"/>
<rect x="6.00008" y="10.0001" width="2.00003" height="2.00003" fill="#F6EEE6"/>
<rect x="8.00011" y="2" width="2.00003" height="2.00003" fill="#161616"/>
<rect x="8.00011" y="4.00002" width="2.00003" height="2.00003" fill="white"/>
<rect x="8.00011" y="6.00005" width="2.00003" height="2.00003" fill="white"/>
<rect x="8.00011" y="8.00008" width="2.00003" height="2.00003" fill="#F6EEE6"/>
<rect x="8.00011" y="10.0001" width="2.00003" height="2.00003" fill="#F6EEE6"/>
<rect y="12.0001" width="2" height="15.9997" fill="#161616"/>
<rect x="2" y="12.0001" width="8.00013" height="15.9997" fill="#F6EEE6"/>
<rect x="6.00008" y="38" width="2.00003" height="2.00003" transform="rotate(-90 6.00008 38)" fill="#161616"/>
<rect x="8.00011" y="38" width="2.00003" height="2.00003" transform="rotate(-90 8.00011 38)" fill="#161616"/>
<rect x="4.00005" y="36" width="2.00003" height="2.00003" transform="rotate(-90 4.00005 36)" fill="#161616"/>
<rect x="6.00008" y="36" width="2.00003" height="2.00003" transform="rotate(-90 6.00008 36)" fill="#CBBCAC"/>
<rect x="8.00009" y="36" width="2.00003" height="2.00003" transform="rotate(-90 8.00009 36)" fill="#CBBCAC"/>
<rect x="2.00003" y="33.9999" width="2.00003" height="2.00003" transform="rotate(-90 2.00003 33.9999)" fill="#161616"/>
<rect x="4.00006" y="33.9999" width="2.00003" height="2.00003" transform="rotate(-90 4.00006 33.9999)" fill="#CBBCAC"/>
<rect x="6.00008" y="33.9999" width="2.00003" height="2.00003" transform="rotate(-90 6.00008 33.9999)" fill="#CBBCAC"/>
<rect x="8.00011" y="33.9999" width="2.00003" height="2.00003" transform="rotate(-90 8.00011 33.9999)" fill="#CBBCAC"/>
<rect y="31.9999" width="2.00003" height="2.00003" transform="rotate(-90 0 31.9999)" fill="#161616"/>
<rect x="2.00003" y="31.9999" width="2.00003" height="2.00003" transform="rotate(-90 2.00003 31.9999)" fill="#CBBCAC"/>
<rect x="4.00005" y="31.9999" width="2.00003" height="2.00003" transform="rotate(-90 4.00005 31.9999)" fill="#F6EEE6"/>
<rect x="6.00008" y="31.9999" width="2.00003" height="2.00003" transform="rotate(-90 6.00008 31.9999)" fill="#F6EEE6"/>
<rect x="8.00011" y="31.9999" width="2.00003" height="2.00003" transform="rotate(-90 8.00011 31.9999)" fill="#F6EEE6"/>
<rect y="29.9999" width="2.00003" height="2.00003" transform="rotate(-90 0 29.9999)" fill="#161616"/>
<rect x="2.00003" y="29.9999" width="2.00003" height="2.00003" transform="rotate(-90 2.00003 29.9999)" fill="#F6EEE6"/>
<rect x="4.00005" y="29.9999" width="2.00003" height="2.00003" transform="rotate(-90 4.00005 29.9999)" fill="#F6EEE6"/>
<rect x="6.00008" y="29.9999" width="2.00003" height="2.00003" transform="rotate(-90 6.00008 29.9999)" fill="#F6EEE6"/>
<rect x="8.00011" y="29.9999" width="2.00003" height="2.00003" transform="rotate(-90 8.00011 29.9999)" fill="#F6EEE6"/>
<rect width="69" height="36" transform="translate(10.0001 2)" fill="#F6EEE6"/>
<rect x="10.0001" width="69" height="2" fill="#161616"/>
<rect x="10.0001" y="2" width="69" height="2" fill="white"/>
<rect width="25" height="32" transform="translate(32.0001 4)" fill="#F6EEE6"/>
<rect x="10.0001" y="36" width="69" height="2" fill="#CBBCAC"/>
<rect x="10.0001" y="38" width="69" height="2" fill="#161616"/>
<rect width="2.00003" height="2.00003" transform="matrix(-1 0 0 1 87.0002 8.00008)" fill="#161616"/>
<rect width="2.00003" height="1.99997" transform="matrix(-1 0 0 1 85.0002 6.00016)" fill="#161616"/>
<rect width="2.00003" height="1.99997" transform="matrix(-1 0 0 1 85.0002 8.00013)" fill="white"/>
<rect width="2.00003" height="2.00004" transform="matrix(-1 0 0 1 83.0002 3.99997)" fill="#161616"/>
<rect width="2.00003" height="2.00004" transform="matrix(-1 0 0 1 83.0002 6.00002)" fill="white"/>
<rect width="2.00003" height="2.00004" transform="matrix(-1 0 0 1 83.0002 8.00006)" fill="#F6EEE6"/>
<rect width="2.00003" height="2.00003" transform="matrix(-1 0 0 1 81.0002 2)" fill="#161616"/>
<rect width="2.00003" height="2.00003" transform="matrix(-1 0 0 1 81.0002 4.00002)" fill="white"/>
<rect width="2.00003" height="2.00003" transform="matrix(-1 0 0 1 81.0002 6.00005)" fill="white"/>
<rect width="2.00003" height="2.00003" transform="matrix(-1 0 0 1 81.0002 8.00008)" fill="#F6EEE6"/>
<rect x="79.0001" y="10.0001" width="6.0001" height="19.9998" fill="#F6EEE6"/>
<rect x="85.0002" y="10.0001" width="2" height="19.9998" fill="#161616"/>
<rect width="2" height="2" transform="matrix(4.37114e-08 -1 -1 -4.37114e-08 81.0001 38)" fill="#161616"/>
<rect width="2.00003" height="2.00003" transform="matrix(4.37114e-08 -1 -1 -4.37114e-08 83.0002 36)" fill="#161616"/>
<rect width="2.00003" height="2.00003" transform="matrix(4.37114e-08 -1 -1 -4.37114e-08 81.0002 36)" fill="#CBBCAC"/>
<rect width="2.00003" height="2.00003" transform="matrix(4.37114e-08 -1 -1 -4.37114e-08 85.0002 34)" fill="#161616"/>
<rect width="2.00003" height="2.00003" transform="matrix(4.37114e-08 -1 -1 -4.37114e-08 83.0002 34)" fill="#CBBCAC"/>
<rect width="2.00003" height="2.00003" transform="matrix(4.37114e-08 -1 -1 -4.37114e-08 81.0002 34)" fill="#CBBCAC"/>
<rect width="2.00003" height="2.00003" transform="matrix(4.37114e-08 -1 -1 -4.37114e-08 87.0002 31.9999)" fill="#161616"/>
<rect width="2.00003" height="2.00003" transform="matrix(4.37114e-08 -1 -1 -4.37114e-08 85.0002 31.9999)" fill="#CBBCAC"/>
<rect width="2.00003" height="2.00003" transform="matrix(4.37114e-08 -1 -1 -4.37114e-08 83.0002 31.9999)" fill="#CBBCAC"/>
<rect width="2.00003" height="2.00003" transform="matrix(4.37114e-08 -1 -1 -4.37114e-08 81.0002 31.9999)" fill="#F6EEE6"/>
</svg>
