<svg width="16" height="17" viewBox="0 0 16 17" fill="none" xmlns="http://www.w3.org/2000/svg">
<path d="M15.9009 0.503418H11.2206L7.94936 5.13997L4.67812 0.503418H0L5.61976 8.4419L0 16.4079H4.64362L7.95158 11.734L11.2607 16.4079H15.9032L10.2834 8.4419L15.9009 0.503418ZM11.7359 1.47445H14.011L9.68014 7.5928L9.42636 7.23251L8.78636 6.32519L8.5504 5.99017L11.7359 1.47445ZM7.95047 10.0369L7.50859 9.41293L6.86525 8.50452L6.82073 8.4419L7.14129 7.98934L7.78129 7.08093L7.95158 6.84037L8.12076 7.08093L8.76076 7.98934L9.08132 8.4419L9.0368 8.50452L8.39235 9.41293L7.95047 10.0369ZM1.88995 1.47445H4.1639L7.35165 5.99017L7.11569 6.32519L6.47457 7.23251L6.2208 7.5928L1.88995 1.47445ZM4.12828 15.4357H1.88661L6.2208 9.2932L6.84299 10.1709L7.35054 10.8871L4.12828 15.4357ZM11.7727 15.4357L8.55263 10.886L9.05906 10.1709L9.68125 9.2921L14.0166 15.4357H11.7727Z" fill="black"/>
</svg>
