<svg width="16" height="17" viewBox="0 0 16 17" fill="none" xmlns="http://www.w3.org/2000/svg">
  <path d="M15.8 3.32C15.57 2.44 14.88 1.76 14 1.53C12.78 1.17 8 1.17 8 1.17C8 1.17 3.22 1.17 2 1.53C1.12 1.76 0.43 2.44 0.2 3.32C-0.07 4.55 -0.07 7.85 -0.07 7.85C-0.07 7.85 -0.07 11.16 0.2 12.39C0.43 13.27 1.12 13.95 2 14.18C3.22 14.54 8 14.54 8 14.54C8 14.54 12.78 14.54 14 14.18C14.88 13.95 15.57 13.27 15.8 12.39C16.07 11.16 16.07 7.85 16.07 7.85C16.07 7.85 16.07 4.55 15.8 3.32ZM6.39 11.05V4.65L10.66 7.85L6.39 11.05Z" fill="black"/>
</svg>