<svg width="20" height="20" viewBox="0 0 20 20" fill="none" xmlns="http://www.w3.org/2000/svg">
<rect x="0.5" y="0.5" width="19" height="19" rx="1.5" stroke="#161616"/>
<mask id="mask0_528_9540" style="mask-type:luminance" maskUnits="userSpaceOnUse" x="4" y="5" width="12" height="10">
<path d="M4.16699 5.83325H15.278V14.1666H4.16699V5.83325Z" fill="white"/>
</mask>
<g mask="url(#mask0_528_9540)">
<path d="M14.3504 5.83325H13.4246V6.75908H12.4987V7.6849H11.5729V8.61088H10.6469V9.5367H9.72112V10.4625H8.79544V11.3884H7.86947V10.4625H6.94364V9.5367H6.01782V8.61088H4.16602V10.4625H5.09199V11.3884H6.01782V12.3143H6.94364V13.24H7.86947V14.166H8.79544V13.24H9.72112V12.3143H10.6469V11.3884H11.5729V10.4625H12.4987V9.5367H13.4246V8.61088H14.3504V7.6849H15.2764V5.83325H14.3504Z" fill="#175BDB"/>
</g>
</svg>
